<?xml version="1.0" encoding="UTF-8"?>
<svg id="Layer_1" data-name="Layer 1" xmlns="http://www.w3.org/2000/svg" viewBox="0 0 4000 4000">
  <defs>
    <style>
      .cls-1 {
        stroke-width: 20.25px;
      }

      .cls-1, .cls-2, .cls-3 {
        stroke-miterlimit: 10;
      }

      .cls-1, .cls-3 {
        fill: none;
        stroke: #000;
      }

      .cls-2 {
        stroke: #231f20;
      }

      .cls-2, .cls-4 {
        fill: #231f20;
      }

      .cls-5 {
        fill: #fff200;
      }

      .cls-5, .cls-4 {
        stroke-width: 0px;
      }

      .cls-6 {
        opacity: .15;
      }

      .cls-3 {
        stroke-width: 20px;
      }
    </style>
  </defs>
  <circle class="cls-2" cx="2000" cy="2000" r="2000"/>
  <circle class="cls-5" cx="2000.09" cy="1999.52" r="690.69"/>
  <circle class="cls-4" cx="2000.09" cy="1999.52" r="50"/>
  <g class="cls-6">
    <circle class="cls-3" cx="2000.09" cy="1999.52" r="1951.09"/>
    <circle class="cls-3" cx="2000.09" cy="2000" r="1840.86"/>
    <circle class="cls-3" cx="2000.09" cy="2000" r="1741.31"/>
    <circle class="cls-3" cx="2000.09" cy="2000.43" r="1642.94"/>
    <circle class="cls-3" cx="2000" cy="2000.8" r="1448.69"/>
    <circle class="cls-3" cx="2000" cy="2000.8" r="1370.34"/>
    <circle class="cls-3" cx="2000" cy="2001.14" r="1292.93"/>
    <circle class="cls-3" cx="2000" cy="2000" r="1220.33"/>
    <circle class="cls-3" cx="2000" cy="2000.3" r="1089.13"/>
    <circle class="cls-3" cx="2000" cy="2000.57" r="1027.6"/>
    <circle class="cls-1" cx="1999.95" cy="2000.57" r="972.28"/>
    <circle class="cls-3" cx="1999.95" cy="2001.14" r="1897.61"/>
    <circle class="cls-3" cx="1999.95" cy="2001.6" r="1790.41"/>
    <circle class="cls-3" cx="1999.95" cy="2001.6" r="1693.58"/>
    <circle class="cls-3" cx="1999.95" cy="2002.02" r="1597.91"/>
    <circle class="cls-3" cx="1999.86" cy="2002.02" r="1493.34"/>
    <circle class="cls-3" cx="1999.86" cy="2002.39" r="1408.98"/>
    <circle class="cls-3" cx="1999.86" cy="2002.39" r="1332.78"/>
    <circle class="cls-3" cx="1999.86" cy="2002.71" r="1257.49"/>
    <circle class="cls-3" cx="1999.86" cy="2001.9" r="1119.84"/>
    <circle class="cls-3" cx="1999.86" cy="2001.9" r="1059.27"/>
    <circle class="cls-3" cx="1999.86" cy="2002.15" r="999.43"/>
  </g>
</svg>